<svg xmlns="http://www.w3.org/2000/svg" xmlns:xlink="http://www.w3.org/1999/xlink" viewBox="0 0 1200 1200" width="1200" height="1200" preserveAspectRatio="xMidYMid meet" style="width: 100%; height: 100%; transform: translate3d(0px, 0px, 0px); content-visibility: visible;" id="Seeking development"><defs><clipPath id="__lottie_element_2904"><rect width="1200" height="1200" x="0" y="0"/></clipPath><clipPath id="__lottie_element_2906"><path d="M0,0 L1200,0 L1200,1200 L0,1200z"/></clipPath><clipPath id="__lottie_element_2910"><path d="M0,0 L800,0 L800,892 L0,892z"/></clipPath><g id="__lottie_element_2931"><g transform="matrix(1,0,0,1,600,602)" opacity="1" style="display: block;"><g opacity="1" transform="matrix(1,0,0,1,-161.5,503)"><path fill="rgb(250,195,77)" fill-opacity="1" d=" M59.5,-98 C59.5,-98 59.5,98 59.5,98 C59.5,98 -59.5,98 -59.5,98 C-59.5,98 -59.5,-98 -59.5,-98 C-59.5,-98 59.5,-98 59.5,-98z"/></g></g></g><g id="__lottie_element_2937"><g transform="matrix(1,0,0,1,736,602)" opacity="1" style="display: block;"><g opacity="1" transform="matrix(1,0,0,1,-161.5,503)"><path fill="rgb(250,195,77)" fill-opacity="1" d=" M59.5,-98 C59.5,-98 59.5,98 59.5,98 C59.5,98 -59.5,98 -59.5,98 C-59.5,98 -59.5,-98 -59.5,-98 C-59.5,-98 59.5,-98 59.5,-98z"/></g></g></g><g id="__lottie_element_2943"><g transform="matrix(1,0,0,1,481,602)" opacity="1" style="display: block;"><g opacity="1" transform="matrix(1,0,0,1,-161.5,503)"><path fill="rgb(250,195,77)" fill-opacity="1" d=" M59.5,-98 C59.5,-98 59.5,98 59.5,98 C59.5,98 -59.5,98 -59.5,98 C-59.5,98 -59.5,-98 -59.5,-98 C-59.5,-98 59.5,-98 59.5,-98z"/></g></g></g><filter id="__lottie_element_2952" filterUnits="objectBoundingBox" x="0%" y="0%" width="100%" height="100%"><feComponentTransfer in="SourceGraphic"><feFuncA type="table" tableValues="1.0 0.0"/></feComponentTransfer></filter><mask id="__lottie_element_2943_2" mask-type="alpha"><g filter="url(#__lottie_element_2952)"><rect width="1200" height="1200" x="0" y="0" fill="#ffffff" opacity="0"/><use xmlns:ns1="http://www.w3.org/1999/xlink" ns1:href="#__lottie_element_2943"/></g></mask><filter id="__lottie_element_2953" filterUnits="objectBoundingBox" x="0%" y="0%" width="100%" height="100%"><feComponentTransfer in="SourceGraphic"><feFuncA type="table" tableValues="1.0 0.0"/></feComponentTransfer></filter><mask id="__lottie_element_2937_2" mask-type="alpha"><g filter="url(#__lottie_element_2953)"><rect width="1200" height="1200" x="0" y="0" fill="#ffffff" opacity="0"/><use xmlns:ns2="http://www.w3.org/1999/xlink" ns2:href="#__lottie_element_2937"/></g></mask><filter id="__lottie_element_2954" filterUnits="objectBoundingBox" x="0%" y="0%" width="100%" height="100%"><feComponentTransfer in="SourceGraphic"><feFuncA type="table" tableValues="1.0 0.0"/></feComponentTransfer></filter><mask id="__lottie_element_2931_2" mask-type="alpha"><g filter="url(#__lottie_element_2954)"><rect width="1200" height="1200" x="0" y="0" fill="#ffffff" opacity="0"/><use xmlns:ns3="http://www.w3.org/1999/xlink" ns3:href="#__lottie_element_2931"/></g></mask></defs><g clip-path="url(#__lottie_element_2904)"><g clip-path="url(#__lottie_element_2906)" transform="matrix(1,0,0,1,0,0)" opacity="1" style="display: block;"><g transform="matrix(1,0,0,1,0,0)" opacity="1" style="display: block;"><g opacity="1" transform="matrix(1,0,0,1,175.9429931640625,1011.093994140625)"><path fill="rgb(64,55,37)" fill-opacity="1" d=" M22.750999450683594,26.016000747680664 C22.750999450683594,26.016000747680664 -22.750999450683594,26.016000747680664 -22.750999450683594,26.016000747680664 C-22.750999450683594,26.016000747680664 -22.750999450683594,-26.016000747680664 -22.750999450683594,-26.016000747680664 C-22.750999450683594,-26.016000747680664 22.750999450683594,-26.016000747680664 22.750999450683594,-26.016000747680664 C22.750999450683594,-26.016000747680664 22.750999450683594,26.016000747680664 22.750999450683594,26.016000747680664z"/><path stroke-linecap="round" stroke-linejoin="round" fill-opacity="0" stroke="rgb(25,25,25)" stroke-opacity="1" stroke-width="1.5" d=" M22.750999450683594,26.016000747680664 C22.750999450683594,26.016000747680664 -22.750999450683594,26.016000747680664 -22.750999450683594,26.016000747680664 C-22.750999450683594,26.016000747680664 -22.750999450683594,-26.016000747680664 -22.750999450683594,-26.016000747680664 C-22.750999450683594,-26.016000747680664 22.750999450683594,-26.016000747680664 22.750999450683594,-26.016000747680664 C22.750999450683594,-26.016000747680664 22.750999450683594,26.016000747680664 22.750999450683594,26.016000747680664z"/></g></g><g transform="matrix(1,0,0,1,0,0)" opacity="1" style="display: block;"><g opacity="1" transform="matrix(1,0,0,1,198.11599731445312,837.822021484375)"><path fill="rgb(255,204,96)" fill-opacity="1" d=" M34.00199890136719,0 C34.00199890136719,-18.777999877929688 18.77899932861328,-34.00199890136719 0,-34.00199890136719 C-18.77899932861328,-34.00199890136719 -34.00199890136719,-18.777999877929688 -34.00199890136719,0 C-34.00199890136719,18.77899932861328 -18.77899932861328,34.00199890136719 0,34.00199890136719 C18.77899932861328,34.00199890136719 34.00199890136719,18.77899932861328 34.00199890136719,0z"/></g></g><g transform="matrix(1,0,0,1,0,0)" opacity="1" style="display: block;"><g opacity="1" transform="matrix(1,0,0,1,890.7949829101562,933.9719848632812)"><path fill="rgb(255,255,255)" fill-opacity="1" d=" M133.05799865722656,73.40699768066406 C179.02999877929688,52.856998443603516 190.53700256347656,3.7790000438690186 165.36300659179688,-25.45800018310547 C142.94200134277344,-51.49800109863281 93.61900329589844,-59.249000549316406 56.02399826049805,-37.104000091552734 C47.222999572753906,-58.41600036621094 32.30799865722656,-64.38300323486328 28.68899917602539,-65.68699645996094 C2.2850000858306885,-75.19999694824219 -39.608001708984375,-58.803001403808594 -63.38199996948242,-19.56999969482422 C-100.83100128173828,-32.6870002746582 -142.49200439453125,-24.194000244140625 -165.13999938964844,-0.050999999046325684 C-190.53599548339844,27.020000457763672 -176.48699951171875,68.65399932861328 -175.2989959716797,72.23999786376953 C-71.34300231933594,75.19999694824219 29.10300064086914,70.4469985961914 133.05799865722656,73.40699768066406z"/><path stroke-linecap="round" stroke-linejoin="round" fill-opacity="0" stroke="rgb(25,25,25)" stroke-opacity="1" stroke-width="1.5" d=" M133.05799865722656,73.40699768066406 C179.02999877929688,52.856998443603516 190.53700256347656,3.7790000438690186 165.36300659179688,-25.45800018310547 C142.94200134277344,-51.49800109863281 93.61900329589844,-59.249000549316406 56.02399826049805,-37.104000091552734 C47.222999572753906,-58.41600036621094 32.30799865722656,-64.38300323486328 28.68899917602539,-65.68699645996094 C2.2850000858306885,-75.19999694824219 -39.608001708984375,-58.803001403808594 -63.38199996948242,-19.56999969482422 C-100.83100128173828,-32.6870002746582 -142.49200439453125,-24.194000244140625 -165.13999938964844,-0.050999999046325684 C-190.53599548339844,27.020000457763672 -176.48699951171875,68.65399932861328 -175.2989959716797,72.23999786376953 C-71.34300231933594,75.19999694824219 29.10300064086914,70.4469985961914 133.05799865722656,73.40699768066406z"/></g><g opacity="1" transform="matrix(1,0,0,1,0,0)"><path fill="rgb(255,255,255)" fill-opacity="1" d=" M1090.2679443359375,1007.3790283203125 C1090.2679443359375,1007.3790283203125 109.73300170898438,1007.3790283203125 109.73300170898438,1007.3790283203125"/><path stroke-linecap="round" stroke-linejoin="round" fill-opacity="0" stroke="rgb(25,25,25)" stroke-opacity="1" stroke-width="1.5" d=" M1090.2679443359375,1007.3790283203125 C1090.2679443359375,1007.3790283203125 109.73300170898438,1007.3790283203125 109.73300170898438,1007.3790283203125"/></g></g><g transform="matrix(0.43442633748054504,0,0,0.43442633748054504,131.27981567382812,528.110107421875)" opacity="1" style="display: block;"><g opacity="1" transform="matrix(1,0,0,1,656.4299926757812,742.4340209960938)"><path fill="rgb(255,255,255)" fill-opacity="1" d=" M380.8240051269531,-255.44200134277344 C380.8240051269531,-255.44200134277344 230.89700317382812,-183.10699462890625 230.89700317382812,-183.10699462890625 C230.89700317382812,-183.10699462890625 326.1549987792969,-173.93499755859375 326.1549987792969,-173.93499755859375 C236.92799377441406,-58.784000396728516 104.70700073242188,12.661999702453613 -24,56.9900016784668 C-35.345001220703125,59.79399871826172 -153.34100341796875,93.7509994506836 -164.21600341796875,96.1520004272461 C-164.21600341796875,96.1520004272461 -164.21600341796875,96.47599792480469 -164.21600341796875,96.47599792480469 C-191.7779998779297,102.0999984741211 -278.1189880371094,116.60700225830078 -282.6669921875,117.2300033569336 C-282.6669921875,117.2300033569336 -282.6669921875,117.39099884033203 -282.6669921875,117.39099884033203 C-312.3609924316406,124.22200012207031 -424.31201171875,129.39100646972656 -424.31201171875,129.39100646972656 C-424.31201171875,129.39100646972656 -424.31201171875,252.94400024414062 -424.31201171875,252.94400024414062 C-424.31201171875,252.94400024414062 -316.95001220703125,255.4409942626953 -282.6669921875,253.0760040283203 C-282.6669921875,253.0760040283203 -282.6669921875,253.45899963378906 -282.6669921875,253.45899963378906 C-278.0369873046875,253.22000122070312 -202.68800354003906,247.11599731445312 -164.21600341796875,240.78799438476562 C-164.21600341796875,240.78799438476562 -164.21600341796875,240.81300354003906 -164.21600341796875,240.81300354003906 C-163.2100067138672,240.65199279785156 -161.48300170898438,240.3459930419922 -159.1490020751953,239.91400146484375 C-159.14700317382812,239.91400146484375 -159.14500427246094,239.91400146484375 -159.14300537109375,239.91299438476562 C-136.52200317382812,235.73300170898438 -56.95100021362305,219.77499389648438 -23.972000122070312,210.11199951171875 C-23.972000122070312,210.11199951171875 -23.972000122070312,210.1060028076172 -23.972000122070312,210.1060028076172 C-14.564000129699707,207.49200439453125 -5.0370001792907715,204.7429962158203 4.61899995803833,201.8280029296875 C261.5459899902344,124.26399993896484 357.8080139160156,-162.1280059814453 357.8080139160156,-162.1280059814453 C357.8080139160156,-162.1280059814453 424.31201171875,-96.18000030517578 424.31201171875,-96.18000030517578 C424.31201171875,-96.18000030517578 380.8240051269531,-255.44200134277344 380.8240051269531,-255.44200134277344z"/><path stroke-linecap="round" stroke-linejoin="round" fill-opacity="0" stroke="rgb(25,25,25)" stroke-opacity="1" stroke-width="1.5" d=" M380.8240051269531,-255.44200134277344 C380.8240051269531,-255.44200134277344 230.89700317382812,-183.10699462890625 230.89700317382812,-183.10699462890625 C230.89700317382812,-183.10699462890625 326.1549987792969,-173.93499755859375 326.1549987792969,-173.93499755859375 C236.92799377441406,-58.784000396728516 104.70700073242188,12.661999702453613 -24,56.9900016784668 C-35.345001220703125,59.79399871826172 -153.34100341796875,93.7509994506836 -164.21600341796875,96.1520004272461 C-164.21600341796875,96.1520004272461 -164.21600341796875,96.47599792480469 -164.21600341796875,96.47599792480469 C-191.7779998779297,102.0999984741211 -278.1189880371094,116.60700225830078 -282.6669921875,117.2300033569336 C-282.6669921875,117.2300033569336 -282.6669921875,117.39099884033203 -282.6669921875,117.39099884033203 C-312.3609924316406,124.22200012207031 -424.31201171875,129.39100646972656 -424.31201171875,129.39100646972656 C-424.31201171875,129.39100646972656 -424.31201171875,252.94400024414062 -424.31201171875,252.94400024414062 C-424.31201171875,252.94400024414062 -316.95001220703125,255.4409942626953 -282.6669921875,253.0760040283203 C-282.6669921875,253.0760040283203 -282.6669921875,253.45899963378906 -282.6669921875,253.45899963378906 C-278.0369873046875,253.22000122070312 -202.68800354003906,247.11599731445312 -164.21600341796875,240.78799438476562 C-164.21600341796875,240.78799438476562 -164.21600341796875,240.81300354003906 -164.21600341796875,240.81300354003906 C-163.2100067138672,240.65199279785156 -161.48300170898438,240.3459930419922 -159.1490020751953,239.91400146484375 C-159.14700317382812,239.91400146484375 -159.14500427246094,239.91400146484375 -159.14300537109375,239.91299438476562 C-136.52200317382812,235.73300170898438 -56.95100021362305,219.77499389648438 -23.972000122070312,210.11199951171875 C-23.972000122070312,210.11199951171875 -23.972000122070312,210.1060028076172 -23.972000122070312,210.1060028076172 C-14.564000129699707,207.49200439453125 -5.0370001792907715,204.7429962158203 4.61899995803833,201.8280029296875 C261.5459899902344,124.26399993896484 357.8080139160156,-162.1280059814453 357.8080139160156,-162.1280059814453 C357.8080139160156,-162.1280059814453 424.31201171875,-96.18000030517578 424.31201171875,-96.18000030517578 C424.31201171875,-96.18000030517578 380.8240051269531,-255.44200134277344 380.8240051269531,-255.44200134277344z"/></g></g><g transform="matrix(0.9999963641166687,0,0,0.9999963641166687,-79.99887084960938,22.986083984375)" opacity="1" style="display: block;"><g opacity="1" transform="matrix(1,0,0,1,313.6499938964844,641.2620239257812)"><path fill="rgb(255,255,255)" fill-opacity="1" d=" M12.1899995803833,15.949999809265137 C12.1899995803833,13.284000396728516 11.255000114440918,11.038999557495117 9.38700008392334,9.213000297546387 C7.51800012588501,7.38700008392334 4.367000102996826,5.736000061035156 -0.06599999964237213,4.258999824523926 C-6.236999988555908,2.375999927520752 -10.734999656677246,-0.07900000363588333 -13.5600004196167,-3.1080000400543213 C-16.385000228881836,-6.135000228881836 -17.797000885009766,-9.980999946594238 -17.797000885009766,-14.647000312805176 C-17.797000885009766,-19.398000717163086 -16.413999557495117,-23.295000076293945 -13.647000312805176,-26.336999893188477 C-10.880000114440918,-29.378999710083008 -7.078000068664551,-31.190000534057617 -2.239000082015991,-31.770000457763672 C-2.239000082015991,-31.770000457763672 -2.239000082015991,-41.28799819946289 -2.239000082015991,-41.28799819946289 C-2.239000082015991,-41.28799819946289 4.236999988555908,-41.28799819946289 4.236999988555908,-41.28799819946289 C4.236999988555908,-41.28799819946289 4.236999988555908,-31.726999282836914 4.236999988555908,-31.726999282836914 C9.104000091552734,-31.059999465942383 12.892999649047852,-29.017000198364258 15.60200023651123,-25.599000930786133 C18.31100082397461,-22.179000854492188 19.666000366210938,-17.5 19.666000366210938,-11.560999870300293 C19.666000366210938,-11.560999870300293 11.668999671936035,-11.560999870300293 11.668999671936035,-11.560999870300293 C11.668999671936035,-15.659000396728516 10.696999549865723,-18.913999557495117 8.755999565124512,-21.32699966430664 C6.815000057220459,-23.73900032043457 4.192999839782715,-24.945999145507812 0.890999972820282,-24.945999145507812 C-2.558000087738037,-24.945999145507812 -5.193999767303467,-24.054000854492188 -7.019000053405762,-22.268999099731445 C-8.845000267028809,-20.483999252319336 -9.756999969482422,-17.9950008392334 -9.756999969482422,-14.802000045776367 C-9.756999969482422,-11.840999603271484 -8.793999671936035,-9.482999801635742 -6.867000102996826,-7.7270002365112305 C-4.940999984741211,-5.9710001945495605 -1.7680000066757202,-4.374000072479248 2.6500000953674316,-2.937999963760376 C7.068999767303467,-1.5 10.517000198364258,0.07999999821186066 12.994000434875488,1.8040000200271606 C15.472000122070312,3.5269999504089355 17.29599952697754,5.533999919891357 18.469999313354492,7.822000026702881 C19.643999099731445,10.111000061035156 20.231000900268555,12.791999816894531 20.231000900268555,15.86299991607666 C20.231000900268555,20.760000228881836 18.759000778198242,24.700000762939453 15.819000244140625,27.683000564575195 C12.878000259399414,30.667999267578125 8.755999565124512,32.435001373291016 3.4549999237060547,32.986000061035156 C3.4549999237060547,32.986000061035156 3.4549999237060547,41.2869987487793 3.4549999237060547,41.2869987487793 C3.4549999237060547,41.2869987487793 -2.9769999980926514,41.2869987487793 -2.9769999980926514,41.2869987487793 C-2.9769999980926514,41.2869987487793 -2.9769999980926514,32.986000061035156 -2.9769999980926514,32.986000061035156 C-8.366999626159668,32.49300003051758 -12.58899974822998,30.573999404907227 -15.645999908447266,27.226999282836914 C-18.70400047302246,23.881000518798828 -20.231000900268555,19.34000015258789 -20.231000900268555,13.60200023651123 C-20.231000900268555,13.60200023651123 -12.190999984741211,13.60200023651123 -12.190999984741211,13.60200023651123 C-12.190999984741211,17.631000518798828 -11.133999824523926,20.729999542236328 -9.017999649047852,22.902999877929688 C-6.9039998054504395,25.076000213623047 -3.9049999713897705,26.163000106811523 -0.02199999988079071,26.163000106811523 C3.7730000019073486,26.163000106811523 6.757999897003174,25.25 8.930000305175781,23.424999237060547 C11.104000091552734,21.599000930786133 12.1899995803833,19.107999801635742 12.1899995803833,15.949999809265137z"/><path stroke-linecap="round" stroke-linejoin="round" fill-opacity="0" stroke="rgb(25,25,25)" stroke-opacity="1" stroke-width="1.5" d=" M12.1899995803833,15.949999809265137 C12.1899995803833,13.284000396728516 11.255000114440918,11.038999557495117 9.38700008392334,9.213000297546387 C7.51800012588501,7.38700008392334 4.367000102996826,5.736000061035156 -0.06599999964237213,4.258999824523926 C-6.236999988555908,2.375999927520752 -10.734999656677246,-0.07900000363588333 -13.5600004196167,-3.1080000400543213 C-16.385000228881836,-6.135000228881836 -17.797000885009766,-9.980999946594238 -17.797000885009766,-14.647000312805176 C-17.797000885009766,-19.398000717163086 -16.413999557495117,-23.295000076293945 -13.647000312805176,-26.336999893188477 C-10.880000114440918,-29.378999710083008 -7.078000068664551,-31.190000534057617 -2.239000082015991,-31.770000457763672 C-2.239000082015991,-31.770000457763672 -2.239000082015991,-41.28799819946289 -2.239000082015991,-41.28799819946289 C-2.239000082015991,-41.28799819946289 4.236999988555908,-41.28799819946289 4.236999988555908,-41.28799819946289 C4.236999988555908,-41.28799819946289 4.236999988555908,-31.726999282836914 4.236999988555908,-31.726999282836914 C9.104000091552734,-31.059999465942383 12.892999649047852,-29.017000198364258 15.60200023651123,-25.599000930786133 C18.31100082397461,-22.179000854492188 19.666000366210938,-17.5 19.666000366210938,-11.560999870300293 C19.666000366210938,-11.560999870300293 11.668999671936035,-11.560999870300293 11.668999671936035,-11.560999870300293 C11.668999671936035,-15.659000396728516 10.696999549865723,-18.913999557495117 8.755999565124512,-21.32699966430664 C6.815000057220459,-23.73900032043457 4.192999839782715,-24.945999145507812 0.890999972820282,-24.945999145507812 C-2.558000087738037,-24.945999145507812 -5.193999767303467,-24.054000854492188 -7.019000053405762,-22.268999099731445 C-8.845000267028809,-20.483999252319336 -9.756999969482422,-17.9950008392334 -9.756999969482422,-14.802000045776367 C-9.756999969482422,-11.840999603271484 -8.793999671936035,-9.482999801635742 -6.867000102996826,-7.7270002365112305 C-4.940999984741211,-5.9710001945495605 -1.7680000066757202,-4.374000072479248 2.6500000953674316,-2.937999963760376 C7.068999767303467,-1.5 10.517000198364258,0.07999999821186066 12.994000434875488,1.8040000200271606 C15.472000122070312,3.5269999504089355 17.29599952697754,5.533999919891357 18.469999313354492,7.822000026702881 C19.643999099731445,10.111000061035156 20.231000900268555,12.791999816894531 20.231000900268555,15.86299991607666 C20.231000900268555,20.760000228881836 18.759000778198242,24.700000762939453 15.819000244140625,27.683000564575195 C12.878000259399414,30.667999267578125 8.755999565124512,32.435001373291016 3.4549999237060547,32.986000061035156 C3.4549999237060547,32.986000061035156 3.4549999237060547,41.2869987487793 3.4549999237060547,41.2869987487793 C3.4549999237060547,41.2869987487793 -2.9769999980926514,41.2869987487793 -2.9769999980926514,41.2869987487793 C-2.9769999980926514,41.2869987487793 -2.9769999980926514,32.986000061035156 -2.9769999980926514,32.986000061035156 C-8.366999626159668,32.49300003051758 -12.58899974822998,30.573999404907227 -15.645999908447266,27.226999282836914 C-18.70400047302246,23.881000518798828 -20.231000900268555,19.34000015258789 -20.231000900268555,13.60200023651123 C-20.231000900268555,13.60200023651123 -12.190999984741211,13.60200023651123 -12.190999984741211,13.60200023651123 C-12.190999984741211,17.631000518798828 -11.133999824523926,20.729999542236328 -9.017999649047852,22.902999877929688 C-6.9039998054504395,25.076000213623047 -3.9049999713897705,26.163000106811523 -0.02199999988079071,26.163000106811523 C3.7730000019073486,26.163000106811523 6.757999897003174,25.25 8.930000305175781,23.424999237060547 C11.104000091552734,21.599000930786133 12.1899995803833,19.107999801635742 12.1899995803833,15.949999809265137z"/></g></g><g mask="url(#__lottie_element_2931_2)" style="display: block;"><g transform="matrix(1,0,0,1,0,98.54156494140625)" opacity="1"><g opacity="1" transform="matrix(1,0,0,1,485.739990234375,789.3629760742188)"><path fill="rgb(255,204,96)" fill-opacity="1" d=" M-6.059000015258789,-248.03799438476562 C-6.059000015258789,-248.03799438476562 6.059999942779541,-224.59100341796875 6.059999942779541,-224.59100341796875 C6.059999942779541,-224.59100341796875 6.059999942779541,248.03799438476562 6.059999942779541,248.03799438476562 C6.059999942779541,248.03799438476562 -6.059000015258789,248.03799438476562 -6.059000015258789,248.03799438476562 C-6.059000015258789,248.03799438476562 -6.059000015258789,-248.03799438476562 -6.059000015258789,-248.03799438476562z"/><path stroke-linecap="round" stroke-linejoin="round" fill-opacity="0" stroke="rgb(25,25,25)" stroke-opacity="1" stroke-width="1.5" d=" M-6.059000015258789,-248.03799438476562 C-6.059000015258789,-248.03799438476562 6.059999942779541,-224.59100341796875 6.059999942779541,-224.59100341796875 C6.059999942779541,-224.59100341796875 6.059999942779541,248.03799438476562 6.059999942779541,248.03799438476562 C6.059999942779541,248.03799438476562 -6.059000015258789,248.03799438476562 -6.059000015258789,248.03799438476562 C-6.059000015258789,248.03799438476562 -6.059000015258789,-248.03799438476562 -6.059000015258789,-248.03799438476562z"/></g><g opacity="1" transform="matrix(1,0,0,1,434.08099365234375,789.3629760742188)"><path fill="rgb(255,255,255)" fill-opacity="1" d=" M45.5989990234375,-248.03799438476562 C45.5989990234375,-248.03799438476562 -45.597999572753906,-248.03799438476562 -45.597999572753906,-248.03799438476562 C-45.597999572753906,-248.03799438476562 -45.597999572753906,248.03799438476562 -45.597999572753906,248.03799438476562 C-45.597999572753906,248.03799438476562 45.5989990234375,248.03799438476562 45.5989990234375,248.03799438476562 C45.5989990234375,248.03799438476562 45.5989990234375,-248.03799438476562 45.5989990234375,-248.03799438476562z"/><path stroke-linecap="round" stroke-linejoin="round" fill-opacity="0" stroke="rgb(25,25,25)" stroke-opacity="1" stroke-width="1.5" d=" M45.5989990234375,-248.03799438476562 C45.5989990234375,-248.03799438476562 -45.597999572753906,-248.03799438476562 -45.597999572753906,-248.03799438476562 C-45.597999572753906,-248.03799438476562 -45.597999572753906,248.03799438476562 -45.597999572753906,248.03799438476562 C-45.597999572753906,248.03799438476562 45.5989990234375,248.03799438476562 45.5989990234375,248.03799438476562 C45.5989990234375,248.03799438476562 45.5989990234375,-248.03799438476562 45.5989990234375,-248.03799438476562z"/></g><g opacity="1" transform="matrix(1,0,0,1,0,0)"><path fill="rgb(255,255,255)" fill-opacity="1" d=" M405.18499755859375,747.4400024414062 C405.18499755859375,747.4400024414062 456.9750061035156,747.4400024414062 456.9750061035156,747.4400024414062 C456.9750061035156,747.4400024414062 405.18499755859375,747.4400024414062 405.18499755859375,747.4400024414062z"/></g><g opacity="1" transform="matrix(1,0,0,1,0,0)"><path stroke-linecap="round" stroke-linejoin="round" fill-opacity="0" stroke="rgb(25,25,25)" stroke-opacity="1" stroke-width="1.5" d=" M405.18499755859375,747.4400024414062 C405.18499755859375,747.4400024414062 456.9739990234375,747.4400024414062 456.9739990234375,747.4400024414062"/></g><g opacity="1" transform="matrix(1,0,0,1,0,0)"><path fill="rgb(255,255,255)" fill-opacity="1" d=" M405.18499755859375,796.64501953125 C405.18499755859375,796.64501953125 456.9750061035156,796.64501953125 456.9750061035156,796.64501953125 C456.9750061035156,796.64501953125 405.18499755859375,796.64501953125 405.18499755859375,796.64501953125z"/></g><g opacity="1" transform="matrix(1,0,0,1,0,0)"><path stroke-linecap="round" stroke-linejoin="round" fill-opacity="0" stroke="rgb(25,25,25)" stroke-opacity="1" stroke-width="1.5" d=" M405.18499755859375,796.64599609375 C405.18499755859375,796.64599609375 456.9739990234375,796.64599609375 456.9739990234375,796.64599609375"/></g><g opacity="1" transform="matrix(1,0,0,1,0,0)"><path fill="rgb(255,255,255)" fill-opacity="1" d=" M405.18499755859375,845.8510131835938 C405.18499755859375,845.8510131835938 456.9750061035156,845.8510131835938 456.9750061035156,845.8510131835938 C456.9750061035156,845.8510131835938 405.18499755859375,845.8510131835938 405.18499755859375,845.8510131835938z"/></g><g opacity="1" transform="matrix(1,0,0,1,0,0)"><path stroke-linecap="round" stroke-linejoin="round" fill-opacity="0" stroke="rgb(25,25,25)" stroke-opacity="1" stroke-width="1.5" d=" M405.18499755859375,845.8510131835938 C405.18499755859375,845.8510131835938 456.9739990234375,845.8510131835938 456.9739990234375,845.8510131835938"/></g><g opacity="1" transform="matrix(1,0,0,1,0,0)"><path fill="rgb(255,255,255)" fill-opacity="1" d=" M405.18499755859375,895.0560302734375 C405.18499755859375,895.0560302734375 456.9750061035156,895.0560302734375 456.9750061035156,895.0560302734375 C456.9750061035156,895.0560302734375 405.18499755859375,895.0560302734375 405.18499755859375,895.0560302734375z"/></g><g opacity="1" transform="matrix(1,0,0,1,0,0)"><path stroke-linecap="round" stroke-linejoin="round" fill-opacity="0" stroke="rgb(25,25,25)" stroke-opacity="1" stroke-width="1.5" d=" M405.18499755859375,895.0560302734375 C405.18499755859375,895.0560302734375 456.9739990234375,895.0560302734375 456.9739990234375,895.0560302734375"/></g><g opacity="1" transform="matrix(1,0,0,1,0,0)"><path fill="rgb(255,255,255)" fill-opacity="1" d=" M405.18499755859375,944.260009765625 C405.18499755859375,944.260009765625 456.9750061035156,944.260009765625 456.9750061035156,944.260009765625 C456.9750061035156,944.260009765625 405.18499755859375,944.260009765625 405.18499755859375,944.260009765625z"/></g><g opacity="1" transform="matrix(1,0,0,1,0,0)"><path stroke-linecap="round" stroke-linejoin="round" fill-opacity="0" stroke="rgb(25,25,25)" stroke-opacity="1" stroke-width="1.5" d=" M405.18499755859375,944.260986328125 C405.18499755859375,944.260986328125 456.9739990234375,944.260986328125 456.9739990234375,944.260986328125"/></g><g opacity="1" transform="matrix(1,0,0,1,0,0)"><path fill="rgb(255,255,255)" fill-opacity="1" d=" M405.18499755859375,993.4639892578125 C405.18499755859375,993.4639892578125 456.9750061035156,993.4639892578125 456.9750061035156,993.4639892578125 C456.9750061035156,993.4639892578125 405.18499755859375,993.4639892578125 405.18499755859375,993.4639892578125z"/></g><g opacity="1" transform="matrix(1,0,0,1,0,0)"><path stroke-linecap="round" stroke-linejoin="round" fill-opacity="0" stroke="rgb(25,25,25)" stroke-opacity="1" stroke-width="1.5" d=" M405.18499755859375,993.4650268554688 C405.18499755859375,993.4650268554688 456.9739990234375,993.4650268554688 456.9739990234375,993.4650268554688"/></g></g></g><g mask="url(#__lottie_element_2937_2)" style="display: block;"><g transform="matrix(1,0,0,1,136,12.6319580078125)" opacity="1"><g opacity="1" transform="matrix(1,0,0,1,485.739990234375,789.3629760742188)"><path fill="rgb(255,204,96)" fill-opacity="1" d=" M-6.059000015258789,-248.03799438476562 C-6.059000015258789,-248.03799438476562 6.059999942779541,-224.59100341796875 6.059999942779541,-224.59100341796875 C6.059999942779541,-224.59100341796875 6.059999942779541,248.03799438476562 6.059999942779541,248.03799438476562 C6.059999942779541,248.03799438476562 -6.059000015258789,248.03799438476562 -6.059000015258789,248.03799438476562 C-6.059000015258789,248.03799438476562 -6.059000015258789,-248.03799438476562 -6.059000015258789,-248.03799438476562z"/><path stroke-linecap="round" stroke-linejoin="round" fill-opacity="0" stroke="rgb(25,25,25)" stroke-opacity="1" stroke-width="1.5" d=" M-6.059000015258789,-248.03799438476562 C-6.059000015258789,-248.03799438476562 6.059999942779541,-224.59100341796875 6.059999942779541,-224.59100341796875 C6.059999942779541,-224.59100341796875 6.059999942779541,248.03799438476562 6.059999942779541,248.03799438476562 C6.059999942779541,248.03799438476562 -6.059000015258789,248.03799438476562 -6.059000015258789,248.03799438476562 C-6.059000015258789,248.03799438476562 -6.059000015258789,-248.03799438476562 -6.059000015258789,-248.03799438476562z"/></g><g opacity="1" transform="matrix(1,0,0,1,434.08099365234375,789.3629760742188)"><path fill="rgb(255,255,255)" fill-opacity="1" d=" M45.5989990234375,-248.03799438476562 C45.5989990234375,-248.03799438476562 -45.597999572753906,-248.03799438476562 -45.597999572753906,-248.03799438476562 C-45.597999572753906,-248.03799438476562 -45.597999572753906,248.03799438476562 -45.597999572753906,248.03799438476562 C-45.597999572753906,248.03799438476562 45.5989990234375,248.03799438476562 45.5989990234375,248.03799438476562 C45.5989990234375,248.03799438476562 45.5989990234375,-248.03799438476562 45.5989990234375,-248.03799438476562z"/><path stroke-linecap="round" stroke-linejoin="round" fill-opacity="0" stroke="rgb(25,25,25)" stroke-opacity="1" stroke-width="1.5" d=" M45.5989990234375,-248.03799438476562 C45.5989990234375,-248.03799438476562 -45.597999572753906,-248.03799438476562 -45.597999572753906,-248.03799438476562 C-45.597999572753906,-248.03799438476562 -45.597999572753906,248.03799438476562 -45.597999572753906,248.03799438476562 C-45.597999572753906,248.03799438476562 45.5989990234375,248.03799438476562 45.5989990234375,248.03799438476562 C45.5989990234375,248.03799438476562 45.5989990234375,-248.03799438476562 45.5989990234375,-248.03799438476562z"/></g><g opacity="1" transform="matrix(1,0,0,1,0,0)"><path fill="rgb(255,255,255)" fill-opacity="1" d=" M405.18499755859375,747.4400024414062 C405.18499755859375,747.4400024414062 456.9750061035156,747.4400024414062 456.9750061035156,747.4400024414062 C456.9750061035156,747.4400024414062 405.18499755859375,747.4400024414062 405.18499755859375,747.4400024414062z"/></g><g opacity="1" transform="matrix(1,0,0,1,0,0)"><path stroke-linecap="round" stroke-linejoin="round" fill-opacity="0" stroke="rgb(25,25,25)" stroke-opacity="1" stroke-width="1.5" d=" M405.18499755859375,747.4400024414062 C405.18499755859375,747.4400024414062 456.9739990234375,747.4400024414062 456.9739990234375,747.4400024414062"/></g><g opacity="1" transform="matrix(1,0,0,1,0,0)"><path fill="rgb(255,255,255)" fill-opacity="1" d=" M405.18499755859375,796.64501953125 C405.18499755859375,796.64501953125 456.9750061035156,796.64501953125 456.9750061035156,796.64501953125 C456.9750061035156,796.64501953125 405.18499755859375,796.64501953125 405.18499755859375,796.64501953125z"/></g><g opacity="1" transform="matrix(1,0,0,1,0,0)"><path stroke-linecap="round" stroke-linejoin="round" fill-opacity="0" stroke="rgb(25,25,25)" stroke-opacity="1" stroke-width="1.5" d=" M405.18499755859375,796.64599609375 C405.18499755859375,796.64599609375 456.9739990234375,796.64599609375 456.9739990234375,796.64599609375"/></g><g opacity="1" transform="matrix(1,0,0,1,0,0)"><path fill="rgb(255,255,255)" fill-opacity="1" d=" M405.18499755859375,845.8510131835938 C405.18499755859375,845.8510131835938 456.9750061035156,845.8510131835938 456.9750061035156,845.8510131835938 C456.9750061035156,845.8510131835938 405.18499755859375,845.8510131835938 405.18499755859375,845.8510131835938z"/></g><g opacity="1" transform="matrix(1,0,0,1,0,0)"><path stroke-linecap="round" stroke-linejoin="round" fill-opacity="0" stroke="rgb(25,25,25)" stroke-opacity="1" stroke-width="1.5" d=" M405.18499755859375,845.8510131835938 C405.18499755859375,845.8510131835938 456.9739990234375,845.8510131835938 456.9739990234375,845.8510131835938"/></g><g opacity="1" transform="matrix(1,0,0,1,0,0)"><path fill="rgb(255,255,255)" fill-opacity="1" d=" M405.18499755859375,895.0560302734375 C405.18499755859375,895.0560302734375 456.9750061035156,895.0560302734375 456.9750061035156,895.0560302734375 C456.9750061035156,895.0560302734375 405.18499755859375,895.0560302734375 405.18499755859375,895.0560302734375z"/></g><g opacity="1" transform="matrix(1,0,0,1,0,0)"><path stroke-linecap="round" stroke-linejoin="round" fill-opacity="0" stroke="rgb(25,25,25)" stroke-opacity="1" stroke-width="1.5" d=" M405.18499755859375,895.0560302734375 C405.18499755859375,895.0560302734375 456.9739990234375,895.0560302734375 456.9739990234375,895.0560302734375"/></g><g opacity="1" transform="matrix(1,0,0,1,0,0)"><path fill="rgb(255,255,255)" fill-opacity="1" d=" M405.18499755859375,944.260009765625 C405.18499755859375,944.260009765625 456.9750061035156,944.260009765625 456.9750061035156,944.260009765625 C456.9750061035156,944.260009765625 405.18499755859375,944.260009765625 405.18499755859375,944.260009765625z"/></g><g opacity="1" transform="matrix(1,0,0,1,0,0)"><path stroke-linecap="round" stroke-linejoin="round" fill-opacity="0" stroke="rgb(25,25,25)" stroke-opacity="1" stroke-width="1.5" d=" M405.18499755859375,944.260986328125 C405.18499755859375,944.260986328125 456.9739990234375,944.260986328125 456.9739990234375,944.260986328125"/></g><g opacity="1" transform="matrix(1,0,0,1,0,0)"><path fill="rgb(255,255,255)" fill-opacity="1" d=" M405.18499755859375,993.4639892578125 C405.18499755859375,993.4639892578125 456.9750061035156,993.4639892578125 456.9750061035156,993.4639892578125 C456.9750061035156,993.4639892578125 405.18499755859375,993.4639892578125 405.18499755859375,993.4639892578125z"/></g><g opacity="1" transform="matrix(1,0,0,1,0,0)"><path stroke-linecap="round" stroke-linejoin="round" fill-opacity="0" stroke="rgb(25,25,25)" stroke-opacity="1" stroke-width="1.5" d=" M405.18499755859375,993.4650268554688 C405.18499755859375,993.4650268554688 456.9739990234375,993.4650268554688 456.9739990234375,993.4650268554688"/></g></g></g><g mask="url(#__lottie_element_2943_2)" style="display: block;"><g transform="matrix(1,0,0,1,-119,38.5838623046875)" opacity="1"><g opacity="1" transform="matrix(1,0,0,1,485.739990234375,789.3629760742188)"><path fill="rgb(255,204,96)" fill-opacity="1" d=" M-6.059000015258789,-248.03799438476562 C-6.059000015258789,-248.03799438476562 6.059999942779541,-224.59100341796875 6.059999942779541,-224.59100341796875 C6.059999942779541,-224.59100341796875 6.059999942779541,248.03799438476562 6.059999942779541,248.03799438476562 C6.059999942779541,248.03799438476562 -6.059000015258789,248.03799438476562 -6.059000015258789,248.03799438476562 C-6.059000015258789,248.03799438476562 -6.059000015258789,-248.03799438476562 -6.059000015258789,-248.03799438476562z"/><path stroke-linecap="round" stroke-linejoin="round" fill-opacity="0" stroke="rgb(25,25,25)" stroke-opacity="1" stroke-width="1.5" d=" M-6.059000015258789,-248.03799438476562 C-6.059000015258789,-248.03799438476562 6.059999942779541,-224.59100341796875 6.059999942779541,-224.59100341796875 C6.059999942779541,-224.59100341796875 6.059999942779541,248.03799438476562 6.059999942779541,248.03799438476562 C6.059999942779541,248.03799438476562 -6.059000015258789,248.03799438476562 -6.059000015258789,248.03799438476562 C-6.059000015258789,248.03799438476562 -6.059000015258789,-248.03799438476562 -6.059000015258789,-248.03799438476562z"/></g><g opacity="1" transform="matrix(1,0,0,1,434.08099365234375,789.3629760742188)"><path fill="rgb(255,255,255)" fill-opacity="1" d=" M45.5989990234375,-248.03799438476562 C45.5989990234375,-248.03799438476562 -45.597999572753906,-248.03799438476562 -45.597999572753906,-248.03799438476562 C-45.597999572753906,-248.03799438476562 -45.597999572753906,248.03799438476562 -45.597999572753906,248.03799438476562 C-45.597999572753906,248.03799438476562 45.5989990234375,248.03799438476562 45.5989990234375,248.03799438476562 C45.5989990234375,248.03799438476562 45.5989990234375,-248.03799438476562 45.5989990234375,-248.03799438476562z"/><path stroke-linecap="round" stroke-linejoin="round" fill-opacity="0" stroke="rgb(25,25,25)" stroke-opacity="1" stroke-width="1.5" d=" M45.5989990234375,-248.03799438476562 C45.5989990234375,-248.03799438476562 -45.597999572753906,-248.03799438476562 -45.597999572753906,-248.03799438476562 C-45.597999572753906,-248.03799438476562 -45.597999572753906,248.03799438476562 -45.597999572753906,248.03799438476562 C-45.597999572753906,248.03799438476562 45.5989990234375,248.03799438476562 45.5989990234375,248.03799438476562 C45.5989990234375,248.03799438476562 45.5989990234375,-248.03799438476562 45.5989990234375,-248.03799438476562z"/></g><g opacity="1" transform="matrix(1,0,0,1,0,0)"><path fill="rgb(255,255,255)" fill-opacity="1" d=" M405.18499755859375,747.4400024414062 C405.18499755859375,747.4400024414062 456.9750061035156,747.4400024414062 456.9750061035156,747.4400024414062 C456.9750061035156,747.4400024414062 405.18499755859375,747.4400024414062 405.18499755859375,747.4400024414062z"/></g><g opacity="1" transform="matrix(1,0,0,1,0,0)"><path stroke-linecap="round" stroke-linejoin="round" fill-opacity="0" stroke="rgb(25,25,25)" stroke-opacity="1" stroke-width="1.5" d=" M405.18499755859375,747.4400024414062 C405.18499755859375,747.4400024414062 456.9739990234375,747.4400024414062 456.9739990234375,747.4400024414062"/></g><g opacity="1" transform="matrix(1,0,0,1,0,0)"><path fill="rgb(255,255,255)" fill-opacity="1" d=" M405.18499755859375,796.64501953125 C405.18499755859375,796.64501953125 456.9750061035156,796.64501953125 456.9750061035156,796.64501953125 C456.9750061035156,796.64501953125 405.18499755859375,796.64501953125 405.18499755859375,796.64501953125z"/></g><g opacity="1" transform="matrix(1,0,0,1,0,0)"><path stroke-linecap="round" stroke-linejoin="round" fill-opacity="0" stroke="rgb(25,25,25)" stroke-opacity="1" stroke-width="1.5" d=" M405.18499755859375,796.64599609375 C405.18499755859375,796.64599609375 456.9739990234375,796.64599609375 456.9739990234375,796.64599609375"/></g><g opacity="1" transform="matrix(1,0,0,1,0,0)"><path fill="rgb(255,255,255)" fill-opacity="1" d=" M405.18499755859375,845.8510131835938 C405.18499755859375,845.8510131835938 456.9750061035156,845.8510131835938 456.9750061035156,845.8510131835938 C456.9750061035156,845.8510131835938 405.18499755859375,845.8510131835938 405.18499755859375,845.8510131835938z"/></g><g opacity="1" transform="matrix(1,0,0,1,0,0)"><path stroke-linecap="round" stroke-linejoin="round" fill-opacity="0" stroke="rgb(25,25,25)" stroke-opacity="1" stroke-width="1.5" d=" M405.18499755859375,845.8510131835938 C405.18499755859375,845.8510131835938 456.9739990234375,845.8510131835938 456.9739990234375,845.8510131835938"/></g><g opacity="1" transform="matrix(1,0,0,1,0,0)"><path fill="rgb(255,255,255)" fill-opacity="1" d=" M405.18499755859375,895.0560302734375 C405.18499755859375,895.0560302734375 456.9750061035156,895.0560302734375 456.9750061035156,895.0560302734375 C456.9750061035156,895.0560302734375 405.18499755859375,895.0560302734375 405.18499755859375,895.0560302734375z"/></g><g opacity="1" transform="matrix(1,0,0,1,0,0)"><path stroke-linecap="round" stroke-linejoin="round" fill-opacity="0" stroke="rgb(25,25,25)" stroke-opacity="1" stroke-width="1.5" d=" M405.18499755859375,895.0560302734375 C405.18499755859375,895.0560302734375 456.9739990234375,895.0560302734375 456.9739990234375,895.0560302734375"/></g><g opacity="1" transform="matrix(1,0,0,1,0,0)"><path fill="rgb(255,255,255)" fill-opacity="1" d=" M405.18499755859375,944.260009765625 C405.18499755859375,944.260009765625 456.9750061035156,944.260009765625 456.9750061035156,944.260009765625 C456.9750061035156,944.260009765625 405.18499755859375,944.260009765625 405.18499755859375,944.260009765625z"/></g><g opacity="1" transform="matrix(1,0,0,1,0,0)"><path stroke-linecap="round" stroke-linejoin="round" fill-opacity="0" stroke="rgb(25,25,25)" stroke-opacity="1" stroke-width="1.5" d=" M405.18499755859375,944.260986328125 C405.18499755859375,944.260986328125 456.9739990234375,944.260986328125 456.9739990234375,944.260986328125"/></g><g opacity="1" transform="matrix(1,0,0,1,0,0)"><path fill="rgb(255,255,255)" fill-opacity="1" d=" M405.18499755859375,993.4639892578125 C405.18499755859375,993.4639892578125 456.9750061035156,993.4639892578125 456.9750061035156,993.4639892578125 C456.9750061035156,993.4639892578125 405.18499755859375,993.4639892578125 405.18499755859375,993.4639892578125z"/></g><g opacity="1" transform="matrix(1,0,0,1,0,0)"><path stroke-linecap="round" stroke-linejoin="round" fill-opacity="0" stroke="rgb(25,25,25)" stroke-opacity="1" stroke-width="1.5" d=" M405.18499755859375,993.4650268554688 C405.18499755859375,993.4650268554688 456.9739990234375,993.4650268554688 456.9739990234375,993.4650268554688"/></g></g></g><g transform="matrix(1.0420721769332886,0,0,1.0420721769332886,-42.79144287109375,-33.75909423828125)" opacity="1" style="display: block;"><g opacity="1" transform="matrix(1,0,0,1,1017.0969848632812,802.4089965820312)"><path fill="rgb(255,204,96)" fill-opacity="1" d=" M41.691001892089844,-28.441999435424805 C41.691001892089844,-28.441999435424805 41.691001892089844,28.441999435424805 41.691001892089844,28.441999435424805 C41.691001892089844,28.441999435424805 -41.691001892089844,28.441999435424805 -41.691001892089844,28.441999435424805 C-41.691001892089844,28.441999435424805 -41.691001892089844,-28.047000885009766 -41.691001892089844,-28.047000885009766 C-41.691001892089844,-28.047000885009766 -33.37699890136719,-21.865999221801758 -33.37699890136719,-21.865999221801758 C-33.37699890136719,-21.865999221801758 0,3.2860000133514404 0,3.2860000133514404 C0,3.2860000133514404 33.04600143432617,-21.865999221801758 33.04600143432617,-21.865999221801758 C33.04600143432617,-21.865999221801758 41.691001892089844,-28.441999435424805 41.691001892089844,-28.441999435424805z"/></g><g opacity="1" transform="matrix(1,0,0,1,1017.0969848632812,789.8319702148438)"><path fill="rgb(230,223,208)" fill-opacity="1" d=" M41.691001892089844,-15.864999771118164 C41.691001892089844,-15.864999771118164 0,15.864999771118164 0,15.864999771118164 C0,15.864999771118164 -41.691001892089844,-15.470000267028809 -41.691001892089844,-15.470000267028809 C-41.691001892089844,-15.470000267028809 41.691001892089844,-15.864999771118164 41.691001892089844,-15.864999771118164z"/></g></g><g transform="matrix(0.8724580407142639,0.48868903517723083,-0.48868903517723083,0.8724580407142639,277.854248046875,-32.05865478515625)" opacity="1" style="display: block;"><g opacity="1" transform="matrix(1,0,0,1,200.34500122070312,516.2830200195312)"><path fill="rgb(255,255,255)" fill-opacity="1" d=" M49.35499954223633,0 C49.35499954223633,27.26099967956543 27.257999420166016,49.358001708984375 -0.003000000026077032,49.358001708984375 C-27.259000778198242,49.358001708984375 -49.35499954223633,27.26099967956543 -49.35499954223633,0 C-49.35499954223633,-27.256000518798828 -27.259000778198242,-49.358001708984375 -0.003000000026077032,-49.358001708984375 C5.122000217437744,-49.358001708984375 10.065999984741211,-48.577999114990234 14.711999893188477,-47.125 C14.711999893188477,-47.125 -0.003000000026077032,0 -0.003000000026077032,0 C-0.003000000026077032,0 44.42100143432617,-21.53700065612793 44.42100143432617,-21.53700065612793 C47.58000183105469,-15.027000427246094 49.35499954223633,-7.7179999351501465 49.35499954223633,0z"/><path stroke-linecap="round" stroke-linejoin="round" fill-opacity="0" stroke="rgb(25,25,25)" stroke-opacity="1" stroke-width="1.5" d=" M49.35499954223633,0 C49.35499954223633,27.26099967956543 27.257999420166016,49.358001708984375 -0.003000000026077032,49.358001708984375 C-27.259000778198242,49.358001708984375 -49.35499954223633,27.26099967956543 -49.35499954223633,0 C-49.35499954223633,-27.256000518798828 -27.259000778198242,-49.358001708984375 -0.003000000026077032,-49.358001708984375 C5.122000217437744,-49.358001708984375 10.065999984741211,-48.577999114990234 14.711999893188477,-47.125 C14.711999893188477,-47.125 -0.003000000026077032,0 -0.003000000026077032,0 C-0.003000000026077032,0 44.42100143432617,-21.53700065612793 44.42100143432617,-21.53700065612793 C47.58000183105469,-15.027000427246094 49.35499954223633,-7.7179999351501465 49.35499954223633,0z"/></g><g opacity="1" transform="matrix(1,0,0,1,225.95802307128906,489.2452697753906)"><path fill="rgb(255,204,96)" fill-opacity="1" d=" M22.211999893188477,2.0250000953674316 C22.211999893188477,2.0250000953674316 -22.211999893188477,23.562000274658203 -22.211999893188477,23.562000274658203 C-22.211999893188477,23.562000274658203 -7.495999813079834,-23.562000274658203 -7.495999813079834,-23.562000274658203 C5.574999809265137,-19.486000061035156 16.312000274658203,-10.121000289916992 22.211999893188477,2.0250000953674316z"/><path stroke-linecap="round" stroke-linejoin="round" fill-opacity="0" stroke="rgb(25,25,25)" stroke-opacity="1" stroke-width="1.5" d=" M22.211999893188477,2.0250000953674316 C22.211999893188477,2.0250000953674316 -22.211999893188477,23.562000274658203 -22.211999893188477,23.562000274658203 C-22.211999893188477,23.562000274658203 -7.495999813079834,-23.562000274658203 -7.495999813079834,-23.562000274658203 C5.574999809265137,-19.486000061035156 16.312000274658203,-10.121000289916992 22.211999893188477,2.0250000953674316z"/></g></g></g><g clip-path="url(#__lottie_element_2910)" transform="matrix(1,0,0,1,222,228)" opacity="1" style="display: block;"><g transform="matrix(0.9991506338119507,0.04120701923966408,-0.04120701923966408,0.9991506338119507,-167.91226196289062,-220.15597534179688)" opacity="1" style="display: block;"><g opacity="1" transform="matrix(1,0,0,1,628.6530151367188,509.6629943847656)"><path fill="rgb(255,255,255)" fill-opacity="1" d=" M280.3529968261719,-59.97100067138672 C278.35400390625,-75.21600341796875 264.3819885253906,-85.95800018310547 249.14300537109375,-83.95899963378906 C249.14300537109375,-83.95899963378906 -12.781000137329102,-49.715999603271484 -12.781000137329102,-49.715999603271484 C-14.593999862670898,-49.47800064086914 -16.354000091552734,-49.071998596191406 -18.027999877929688,-48.507999420166016 C-37.59000015258789,-99.99400329589844 -87.39700317382812,-136.59100341796875 -145.75100708007812,-136.59100341796875 C-221.18499755859375,-136.59100341796875 -282.3399963378906,-75.43699645996094 -282.3399963378906,-0.003000000026077032 C-282.3399963378906,75.43800354003906 -221.18499755859375,136.59100341796875 -145.75100708007812,136.59100341796875 C-72.22799682617188,136.59100341796875 -12.276000022888184,78.50700378417969 -9.277999877929688,5.7210001945495605 C-8.04699993133545,5.7210001945495605 -6.815000057220459,5.650000095367432 -5.559999942779541,5.48199987411499 C-5.559999942779541,5.48199987411499 256.3580017089844,-28.766000747680664 256.3580017089844,-28.766000747680664 C271.6029968261719,-30.753000259399414 282.3389892578125,-44.73099899291992 280.3529968261719,-59.97100067138672z M-141.0959930419922,104.81800079345703 C-142.64199829101562,104.88700103759766 -144.19400024414062,104.9219970703125 -145.75100708007812,104.9219970703125 C-203.60499572753906,104.9219970703125 -250.66900634765625,57.85100173950195 -250.66900634765625,-0.003000000026077032 C-250.66900634765625,-57.856998443603516 -203.60499572753906,-104.9219970703125 -145.75100708007812,-104.9219970703125 C-144.19400024414062,-104.9219970703125 -142.64199829101562,-104.88700103759766 -141.0959930419922,-104.81800079345703 C-85.39199829101562,-102.37699890136719 -40.82600021362305,-56.29999923706055 -40.82600021362305,-0.003000000026077032 C-40.82600021362305,56.29499816894531 -85.39199829101562,102.37799835205078 -141.0959930419922,104.81800079345703z"/><path stroke-linecap="round" stroke-linejoin="round" fill-opacity="0" stroke="rgb(25,25,25)" stroke-opacity="1" stroke-width="1.5" d=" M280.3529968261719,-59.97100067138672 C278.35400390625,-75.21600341796875 264.3819885253906,-85.95800018310547 249.14300537109375,-83.95899963378906 C249.14300537109375,-83.95899963378906 -12.781000137329102,-49.715999603271484 -12.781000137329102,-49.715999603271484 C-14.593999862670898,-49.47800064086914 -16.354000091552734,-49.071998596191406 -18.027999877929688,-48.507999420166016 C-37.59000015258789,-99.99400329589844 -87.39700317382812,-136.59100341796875 -145.75100708007812,-136.59100341796875 C-221.18499755859375,-136.59100341796875 -282.3399963378906,-75.43699645996094 -282.3399963378906,-0.003000000026077032 C-282.3399963378906,75.43800354003906 -221.18499755859375,136.59100341796875 -145.75100708007812,136.59100341796875 C-72.22799682617188,136.59100341796875 -12.276000022888184,78.50700378417969 -9.277999877929688,5.7210001945495605 C-8.04699993133545,5.7210001945495605 -6.815000057220459,5.650000095367432 -5.559999942779541,5.48199987411499 C-5.559999942779541,5.48199987411499 256.3580017089844,-28.766000747680664 256.3580017089844,-28.766000747680664 C271.6029968261719,-30.753000259399414 282.3389892578125,-44.73099899291992 280.3529968261719,-59.97100067138672z M-141.0959930419922,104.81800079345703 C-142.64199829101562,104.88700103759766 -144.19400024414062,104.9219970703125 -145.75100708007812,104.9219970703125 C-203.60499572753906,104.9219970703125 -250.66900634765625,57.85100173950195 -250.66900634765625,-0.003000000026077032 C-250.66900634765625,-57.856998443603516 -203.60499572753906,-104.9219970703125 -145.75100708007812,-104.9219970703125 C-144.19400024414062,-104.9219970703125 -142.64199829101562,-104.88700103759766 -141.0959930419922,-104.81800079345703 C-85.39199829101562,-102.37699890136719 -40.82600021362305,-56.29999923706055 -40.82600021362305,-0.003000000026077032 C-40.82600021362305,56.29499816894531 -85.39199829101562,102.37799835205078 -141.0959930419922,104.81800079345703z"/></g><g opacity="1" transform="matrix(1,0,0,1,432.7699890136719,509.6629943847656)"><path fill="rgb(255,204,96)" fill-opacity="1" d=" M54.7859992980957,104.81800079345703 C53.2400016784668,104.88700103759766 51.68899917602539,104.9219970703125 50.13199996948242,104.9219970703125 C-7.7220001220703125,104.9219970703125 -54.7859992980957,57.85100173950195 -54.7859992980957,-0.003000000026077032 C-54.7859992980957,-57.856998443603516 -7.7220001220703125,-104.9219970703125 50.13199996948242,-104.9219970703125 C51.68899917602539,-104.9219970703125 53.2400016784668,-104.88700103759766 54.7859992980957,-104.81800079345703 C-0.9190000295639038,-102.37699890136719 -45.4739990234375,-56.29999923706055 -45.4739990234375,-0.003000000026077032 C-45.4739990234375,56.29499816894531 -0.9190000295639038,102.37799835205078 54.7859992980957,104.81800079345703z"/><path stroke-linecap="round" stroke-linejoin="round" fill-opacity="0" stroke="rgb(25,25,25)" stroke-opacity="1" stroke-width="1.5" d=" M54.7859992980957,104.81800079345703 C53.2400016784668,104.88700103759766 51.68899917602539,104.9219970703125 50.13199996948242,104.9219970703125 C-7.7220001220703125,104.9219970703125 -54.7859992980957,57.85100173950195 -54.7859992980957,-0.003000000026077032 C-54.7859992980957,-57.856998443603516 -7.7220001220703125,-104.9219970703125 50.13199996948242,-104.9219970703125 C51.68899917602539,-104.9219970703125 53.2400016784668,-104.88700103759766 54.7859992980957,-104.81800079345703 C-0.9190000295639038,-102.37699890136719 -45.4739990234375,-56.29999923706055 -45.4739990234375,-0.003000000026077032 C-45.4739990234375,56.29499816894531 -0.9190000295639038,102.37799835205078 54.7859992980957,104.81800079345703z"/></g><g opacity="1" transform="matrix(1,0,0,1,434.39300537109375,495.3890075683594)"><path fill="rgb(255,255,255)" fill-opacity="1" d=" M22.479000091552734,-33.88399887084961 C8.79699993133545,-54.68199920654297 -20.051000595092773,-15.329999923706055 -22.18899917602539,0.12099999934434891 C-25.55699920654297,11.767000198364258 -24.604999542236328,54.68199920654297 -3.371000051498413,47.777000427246094 C2.6110000610351562,45.45000076293945 5.572000026702881,38.715999603271484 3.246000051498413,32.73500061035156 C-0.5699999928474426,22.365999221801758 -1.468000054359436,15.428999900817871 0.2070000022649765,6.429999828338623 C2.318000078201294,-3.8949999809265137 9.753999710083008,-13.045999526977539 17.974000930786133,-18.145000457763672 C17.974000930786133,-18.145000457763672 17.972999572753906,-18.149999618530273 17.972999572753906,-18.149999618530273 C23.535999298095703,-21.263999938964844 25.55699920654297,-28.28700065612793 22.479000091552734,-33.88399887084961z"/><path stroke-linecap="round" stroke-linejoin="round" fill-opacity="0" stroke="rgb(25,25,25)" stroke-opacity="1" stroke-width="1.5" d=" M22.479000091552734,-33.88399887084961 C8.79699993133545,-54.68199920654297 -20.051000595092773,-15.329999923706055 -22.18899917602539,0.12099999934434891 C-25.55699920654297,11.767000198364258 -24.604999542236328,54.68199920654297 -3.371000051498413,47.777000427246094 C2.6110000610351562,45.45000076293945 5.572000026702881,38.715999603271484 3.246000051498413,32.73500061035156 C-0.5699999928474426,22.365999221801758 -1.468000054359436,15.428999900817871 0.2070000022649765,6.429999828338623 C2.318000078201294,-3.8949999809265137 9.753999710083008,-13.045999526977539 17.974000930786133,-18.145000457763672 C17.974000930786133,-18.145000457763672 17.972999572753906,-18.149999618530273 17.972999572753906,-18.149999618530273 C23.535999298095703,-21.263999938964844 25.55699920654297,-28.28700065612793 22.479000091552734,-33.88399887084961z"/></g></g><g transform="matrix(1,0,0,1,-212,-222)" opacity="1" style="display: block;"><g opacity="1" transform="matrix(1,0,0,1,834.1640014648438,1019.9030151367188)"><path fill="rgb(64,55,37)" fill-opacity="1" d=" M-37.816001892089844,-17.496999740600586 C-37.816001892089844,-17.496999740600586 -37.816001892089844,17.496999740600586 -37.816001892089844,17.496999740600586 C-37.816001892089844,17.496999740600586 19.753999710083008,14.111000061035156 28.785999298095703,14.487000465393066 C37.816001892089844,14.86299991607666 37.76900100708008,5.126999855041504 33.676998138427734,3.2929999828338623 C9.54699993133545,1.1759999990463257 -7.526000022888184,-5.73799991607666 -7.526000022888184,-5.73799991607666 C-7.526000022888184,-5.73799991607666 -17.54400062561035,-14.90999984741211 -17.54400062561035,-14.90999984741211 C-17.54400062561035,-14.90999984741211 -37.816001892089844,-17.496999740600586 -37.816001892089844,-17.496999740600586z"/><path stroke-linecap="round" stroke-linejoin="round" fill-opacity="0" stroke="rgb(25,25,25)" stroke-opacity="1" stroke-width="1.5" d=" M-37.816001892089844,-17.496999740600586 C-37.816001892089844,-17.496999740600586 -37.816001892089844,17.496999740600586 -37.816001892089844,17.496999740600586 C-37.816001892089844,17.496999740600586 19.753999710083008,14.111000061035156 28.785999298095703,14.487000465393066 C37.816001892089844,14.86299991607666 37.76900100708008,5.126999855041504 33.676998138427734,3.2929999828338623 C9.54699993133545,1.1759999990463257 -7.526000022888184,-5.73799991607666 -7.526000022888184,-5.73799991607666 C-7.526000022888184,-5.73799991607666 -17.54400062561035,-14.90999984741211 -17.54400062561035,-14.90999984741211 C-17.54400062561035,-14.90999984741211 -37.816001892089844,-17.496999740600586 -37.816001892089844,-17.496999740600586z"/></g><g opacity="1" transform="matrix(1,0,0,1,807.1630249023438,968.9169921875)"><path fill="rgb(255,255,255)" fill-opacity="1" d=" M-18.533000946044922,-40.63800048828125 C-18.533000946044922,-40.63800048828125 -18.533000946044922,40.63800048828125 -18.533000946044922,40.63800048828125 C-18.533000946044922,40.63800048828125 18.534000396728516,40.63800048828125 18.534000396728516,40.63800048828125 C18.534000396728516,40.63800048828125 18.534000396728516,-37.62799835205078 18.534000396728516,-37.62799835205078 C18.534000396728516,-37.62799835205078 -18.533000946044922,-40.63800048828125 -18.533000946044922,-40.63800048828125z"/><path stroke-linecap="round" stroke-linejoin="round" fill-opacity="0" stroke="rgb(25,25,25)" stroke-opacity="1" stroke-width="1.5" d=" M-18.533000946044922,-40.63800048828125 C-18.533000946044922,-40.63800048828125 -18.533000946044922,40.63800048828125 -18.533000946044922,40.63800048828125 C-18.533000946044922,40.63800048828125 18.534000396728516,40.63800048828125 18.534000396728516,40.63800048828125 C18.534000396728516,40.63800048828125 18.534000396728516,-37.62799835205078 18.534000396728516,-37.62799835205078 C18.534000396728516,-37.62799835205078 -18.533000946044922,-40.63800048828125 -18.533000946044922,-40.63800048828125z"/></g></g><g transform="matrix(1,0,0,1,-212,-222)" opacity="1" style="display: block;"><g opacity="1" transform="matrix(1,0,0,1,724.52001953125,1019.9030151367188)"><path fill="rgb(64,55,37)" fill-opacity="1" d=" M37.81700134277344,-17.496999740600586 C37.81700134277344,-17.496999740600586 37.81700134277344,17.496999740600586 37.81700134277344,17.496999740600586 C37.81700134277344,17.496999740600586 -19.753999710083008,14.111000061035156 -28.785999298095703,14.487000465393066 C-37.816001892089844,14.86299991607666 -37.76900100708008,5.126999855041504 -33.676998138427734,3.2929999828338623 C-9.54800033569336,1.1759999990463257 7.526000022888184,-5.73799991607666 7.526000022888184,-5.73799991607666 C7.526000022888184,-5.73799991607666 17.54400062561035,-14.90999984741211 17.54400062561035,-14.90999984741211 C17.54400062561035,-14.90999984741211 37.81700134277344,-17.496999740600586 37.81700134277344,-17.496999740600586z"/><path stroke-linecap="round" stroke-linejoin="round" fill-opacity="0" stroke="rgb(25,25,25)" stroke-opacity="1" stroke-width="1.5" d=" M37.81700134277344,-17.496999740600586 C37.81700134277344,-17.496999740600586 37.81700134277344,17.496999740600586 37.81700134277344,17.496999740600586 C37.81700134277344,17.496999740600586 -19.753999710083008,14.111000061035156 -28.785999298095703,14.487000465393066 C-37.816001892089844,14.86299991607666 -37.76900100708008,5.126999855041504 -33.676998138427734,3.2929999828338623 C-9.54800033569336,1.1759999990463257 7.526000022888184,-5.73799991607666 7.526000022888184,-5.73799991607666 C7.526000022888184,-5.73799991607666 17.54400062561035,-14.90999984741211 17.54400062561035,-14.90999984741211 C17.54400062561035,-14.90999984741211 37.81700134277344,-17.496999740600586 37.81700134277344,-17.496999740600586z"/></g><g opacity="1" transform="matrix(1,0,0,1,751.52099609375,968.9169921875)"><path fill="rgb(255,255,255)" fill-opacity="1" d=" M18.534000396728516,-40.63800048828125 C18.534000396728516,-40.63800048828125 18.534000396728516,40.63800048828125 18.534000396728516,40.63800048828125 C18.534000396728516,40.63800048828125 -18.534000396728516,40.63800048828125 -18.534000396728516,40.63800048828125 C-18.534000396728516,40.63800048828125 -18.534000396728516,-37.62799835205078 -18.534000396728516,-37.62799835205078 C-18.534000396728516,-37.62799835205078 18.534000396728516,-40.63800048828125 18.534000396728516,-40.63800048828125z"/><path stroke-linecap="round" stroke-linejoin="round" fill-opacity="0" stroke="rgb(25,25,25)" stroke-opacity="1" stroke-width="1.5" d=" M18.534000396728516,-40.63800048828125 C18.534000396728516,-40.63800048828125 18.534000396728516,40.63800048828125 18.534000396728516,40.63800048828125 C18.534000396728516,40.63800048828125 -18.534000396728516,40.63800048828125 -18.534000396728516,40.63800048828125 C-18.534000396728516,40.63800048828125 -18.534000396728516,-37.62799835205078 -18.534000396728516,-37.62799835205078 C-18.534000396728516,-37.62799835205078 18.534000396728516,-40.63800048828125 18.534000396728516,-40.63800048828125z"/></g></g><g transform="matrix(0.9634624123573303,0.2678436040878296,-0.2678436040878296,0.9634624123573303,-19.33013916015625,-377.5223388671875)" opacity="1" style="display: block;"><g opacity="1" transform="matrix(1,0,0,1,698.9140014648438,634.1690063476562)"><path fill="rgb(255,255,255)" fill-opacity="1" d=" M8.248000144958496,14.293999671936035 C23.44499969482422,1.3179999589920044 -10.449000358581543,-28.61199951171875 -10.449000358581543,-28.61199951171875 C-10.449000358581543,-28.61199951171875 -23.44499969482422,-22.08099937438965 -23.44499969482422,-22.08099937438965 C-23.44499969482422,-22.08099937438965 -16.757999420166016,28.61199951171875 8.248000144958496,14.293999671936035z"/><path stroke-linecap="round" stroke-linejoin="round" fill-opacity="0" stroke="rgb(25,25,25)" stroke-opacity="1" stroke-width="1.5" d=" M8.248000144958496,14.293999671936035 C23.44499969482422,1.3179999589920044 -10.449000358581543,-28.61199951171875 -10.449000358581543,-28.61199951171875 C-10.449000358581543,-28.61199951171875 -23.44499969482422,-22.08099937438965 -23.44499969482422,-22.08099937438965 C-23.44499969482422,-22.08099937438965 -16.757999420166016,28.61199951171875 8.248000144958496,14.293999671936035z"/></g></g><g transform="matrix(0.9493544101715088,0.3142073154449463,-0.3142073154449463,0.9493544101715088,18.900955200195312,-400.6141052246094)" opacity="1" style="display: block;"><g opacity="1" transform="matrix(1,0,0,1,654.7750244140625,584.030029296875)"><path fill="rgb(255,204,96)" fill-opacity="1" d=" M-33.270999908447266,-28.611000061035156 C-39.5359992980957,-12.92300033569336 22.732999801635742,41.35200119018555 22.732999801635742,41.35200119018555 C22.732999801635742,41.35200119018555 39.53499984741211,25.54800033569336 39.53499984741211,25.54800033569336 C39.53499984741211,25.54800033569336 -2.447000026702881,-25.781999588012695 -2.447000026702881,-25.781999588012695 C-14.269000053405762,-38.54499816894531 -26.704999923706055,-41.35200119018555 -33.270999908447266,-28.611000061035156z"/><path stroke-linecap="round" stroke-linejoin="round" fill-opacity="0" stroke="rgb(25,25,25)" stroke-opacity="1" stroke-width="1.5" d=" M-33.270999908447266,-28.611000061035156 C-39.5359992980957,-12.92300033569336 22.732999801635742,41.35200119018555 22.732999801635742,41.35200119018555 C22.732999801635742,41.35200119018555 39.53499984741211,25.54800033569336 39.53499984741211,25.54800033569336 C39.53499984741211,25.54800033569336 -2.447000026702881,-25.781999588012695 -2.447000026702881,-25.781999588012695 C-14.269000053405762,-38.54499816894531 -26.704999923706055,-41.35200119018555 -33.270999908447266,-28.611000061035156z"/></g></g><g transform="matrix(0.9996287822723389,-0.02724408358335495,0.02724408358335495,0.9996287822723389,-204.16065979003906,-212.45831298828125)" opacity="1" style="display: block;"><g opacity="1" transform="matrix(1,0,0,1,661.1380004882812,540.9030151367188)"><path fill="rgb(255,204,96)" fill-opacity="1" d=" M48.6609992980957,-18.638999938964844 C45.650001525878906,-38.20600128173828 30.02899932861328,-36.965999603271484 30.02899932861328,-36.965999603271484 C30.02899932861328,-36.965999603271484 -34.39500045776367,7.513999938964844 -34.39500045776367,7.513999938964844 C-48.6609992980957,20.360000610351562 -31.027000427246094,38.20500183105469 -14.428999900817871,28.809999465942383 C-14.428999900817871,28.809999465942383 15.053000450134277,11.998000144958496 48.6609992980957,-18.638999938964844z"/></g><g opacity="1" transform="matrix(1,0,0,1,665.2459716796875,534.9000244140625)"><path stroke-linecap="round" stroke-linejoin="round" fill-opacity="0" stroke="rgb(25,25,25)" stroke-opacity="1" stroke-width="1.5" d=" M-14.199000358581543,32.20199966430664 C-4.810999870300293,26.384000778198242 18.643999099731445,10.982000350952148 44.551998138427734,-12.635000228881836 C41.54100036621094,-32.20199966430664 25.92099952697754,-30.961999893188477 25.92099952697754,-30.961999893188477 C25.92099952697754,-30.961999893188477 -38.50299835205078,13.517000198364258 -38.50299835205078,13.517000198364258 C-40.93299865722656,15.704999923706055 -42.4379997253418,18.038000106811523 -43.18000030517578,20.35700035095215"/></g></g><g transform="matrix(1,0,0,1,-212,-222)" opacity="1" style="display: block;"><g opacity="1" transform="matrix(1,0,0,1,780.7410278320312,782.9719848632812)"><path fill="rgb(255,255,255)" fill-opacity="1" d=" M49.56700134277344,-194.38400268554688 C49.56700134277344,-194.38400268554688 102.62100219726562,-159.6750030517578 93.80000305175781,-2.428999900817871 C86.33599853515625,130.64999389648438 74.11799621582031,190.24200439453125 74.11799621582031,190.24200439453125 C74.11799621582031,190.24200439453125 -64.1719970703125,194.38400268554688 -64.1719970703125,194.38400268554688 C-64.1719970703125,194.38400268554688 -102.62200164794922,-86.97000122070312 -100.38300323486328,-114.9260025024414 C-97.43900299072266,-170.4720001220703 -74.88999938964844,-169.83200073242188 -74.88999938964844,-169.83200073242188 C-74.88999938964844,-169.83200073242188 49.56700134277344,-194.38400268554688 49.56700134277344,-194.38400268554688z"/><path stroke-linecap="round" stroke-linejoin="round" fill-opacity="0" stroke="rgb(25,25,25)" stroke-opacity="1" stroke-width="1.5" d=" M49.56700134277344,-194.38400268554688 C49.56700134277344,-194.38400268554688 102.62100219726562,-159.6750030517578 93.80000305175781,-2.428999900817871 C86.33599853515625,130.64999389648438 74.11799621582031,190.24200439453125 74.11799621582031,190.24200439453125 C74.11799621582031,190.24200439453125 -64.1719970703125,194.38400268554688 -64.1719970703125,194.38400268554688 C-64.1719970703125,194.38400268554688 -102.62200164794922,-86.97000122070312 -100.38300323486328,-114.9260025024414 C-97.43900299072266,-170.4720001220703 -74.88999938964844,-169.83200073242188 -74.88999938964844,-169.83200073242188 C-74.88999938964844,-169.83200073242188 49.56700134277344,-194.38400268554688 49.56700134277344,-194.38400268554688z"/></g></g><g transform="matrix(0.9933598041534424,0.11504914611577988,-0.11504914611577988,0.9933598041534424,-130.912109375,-277.95440673828125)" opacity="1" style="display: block;"><g opacity="1" transform="matrix(1,0,0,1,807.791015625,440.5840148925781)"><path fill="rgb(255,255,255)" fill-opacity="1" d=" M9.559000015258789,15.02400016784668 C9.559000015258789,15.02400016784668 -3.625,18.02899932861328 -5.6020002365112305,6.309999942779541 C-7.579999923706055,-5.409999847412109 -13.51200008392334,-6.9120001792907715 -18.78700065612793,-3.4560000896453857 C-21.257999420166016,-5.409999847412109 -24.06100082397461,-12.444999694824219 -8.569999694824219,-15.237000465393066 C6.921000003814697,-18.030000686645508 16.315000534057617,-16.525999069213867 19.445999145507812,-12.619999885559082 C22.577999114990234,-8.71399974822998 23.91200065612793,5.416999816894531 23.059999465942383,9.166999816894531 C22.20800018310547,12.916999816894531 9.559000015258789,15.02400016784668 9.559000015258789,15.02400016784668z"/><path stroke-linecap="round" stroke-linejoin="round" fill-opacity="0" stroke="rgb(25,25,25)" stroke-opacity="1" stroke-width="1.5" d=" M9.559000015258789,15.02400016784668 C9.559000015258789,15.02400016784668 -3.625,18.02899932861328 -5.6020002365112305,6.309999942779541 C-7.579999923706055,-5.409999847412109 -13.51200008392334,-6.9120001792907715 -18.78700065612793,-3.4560000896453857 C-21.257999420166016,-5.409999847412109 -24.06100082397461,-12.444999694824219 -8.569999694824219,-15.237000465393066 C6.921000003814697,-18.030000686645508 16.315000534057617,-16.525999069213867 19.445999145507812,-12.619999885559082 C22.577999114990234,-8.71399974822998 23.91200065612793,5.416999816894531 23.059999465942383,9.166999816894531 C22.20800018310547,12.916999816894531 9.559000015258789,15.02400016784668 9.559000015258789,15.02400016784668z"/></g></g><g transform="matrix(0.8834742903709412,0.4684796631336212,-0.4684796631336212,0.8834742903709412,134.62396240234375,-517.3572998046875)" opacity="1" style="display: block;"><g opacity="1" transform="matrix(1,0,0,1,802.218017578125,503.63299560546875)"><path fill="rgb(255,204,96)" fill-opacity="1" d=" M41.84400177001953,-11.789999961853027 C36.720001220703125,-16.55699920654297 -50.012001037597656,-7.663000106811523 -50.012001037597656,-7.663000106811523 C-50.012001037597656,-7.663000106811523 -47.755001068115234,15.272000312805176 -47.755001068115234,15.272000312805176 C-47.755001068115234,15.272000312805176 15.840999603271484,16.55699920654297 38.970001220703125,9.10200023651123 C50.01100158691406,5.831999778747559 46.27199935913086,-7.670000076293945 41.84400177001953,-11.789999961853027z"/><path stroke-linecap="round" stroke-linejoin="round" fill-opacity="0" stroke="rgb(25,25,25)" stroke-opacity="1" stroke-width="1.5" d=" M41.84400177001953,-11.789999961853027 C36.720001220703125,-16.55699920654297 -50.012001037597656,-7.663000106811523 -50.012001037597656,-7.663000106811523 C-50.012001037597656,-7.663000106811523 -47.755001068115234,15.272000312805176 -47.755001068115234,15.272000312805176 C-47.755001068115234,15.272000312805176 15.840999603271484,16.55699920654297 38.970001220703125,9.10200023651123 C50.01100158691406,5.831999778747559 46.27199935913086,-7.670000076293945 41.84400177001953,-11.789999961853027z"/></g></g><g transform="matrix(0.9857385754585266,0.16828398406505585,-0.16828398406505585,0.9857385754585266,-100.83152770996094,-318.0843200683594)" opacity="1" style="display: block;"><g opacity="1" transform="matrix(1,0,0,1,826.927978515625,477.8489990234375)"><path fill="rgb(255,204,96)" fill-opacity="1" d=" M21.535999298095703,26.3439998626709 C22.354999542236328,19.382999420166016 3.818000078201294,-29.111000061035156 3.818000078201294,-29.111000061035156 C3.818000078201294,-29.111000061035156 0.5979999899864197,-36.869998931884766 -10.878000259399414,-34.98899841308594 C-22.354999542236328,-33.108001708984375 -19.1560001373291,-23.323999404907227 -19.1560001373291,-23.323999404907227 C-19.1560001373291,-23.323999404907227 -5.446000099182129,24.926000595092773 -1.753000020980835,30.632999420166016 C1.6269999742507935,36.63199996948242 6.4019999504089355,36.869998931884766 8.288999557495117,36.542999267578125 C17.52199935913086,34.944000244140625 20.716999053955078,33.305999755859375 21.535999298095703,26.3439998626709z"/></g><g opacity="1" transform="matrix(1,0,0,1,826.927978515625,477.68499755859375)"><path stroke-linecap="round" stroke-linejoin="round" fill-opacity="0" stroke="rgb(25,25,25)" stroke-opacity="1" stroke-width="1.5" d=" M8.289999961853027,36.707000732421875 C17.523000717163086,35.108001708984375 20.716999053955078,33.470001220703125 21.535999298095703,26.507999420166016 C22.354999542236328,19.54599952697754 3.819000005722046,-28.94700050354004 3.819000005722046,-28.94700050354004 C3.819000005722046,-28.94700050354004 0.5989999771118164,-36.707000732421875 -10.878000259399414,-34.82500076293945 C-22.354999542236328,-32.944000244140625 -19.155000686645508,-23.160999298095703 -19.155000686645508,-23.160999298095703 C-19.155000686645508,-23.160999298095703 -12.147000312805176,1.5080000162124634 -6.802000045776367,17.65399932861328"/></g></g><g transform="matrix(0.9864405989646912,0.16411878168582916,-0.16411878168582916,0.9864405989646912,-97.38336181640625,-340.3626708984375)" opacity="1" style="display: block;"><g opacity="1" transform="matrix(1,0,0,1,786.43798828125,627.655029296875)"><path fill="rgb(64,55,37)" fill-opacity="1" d=" M-77.96600341796875,16.34600067138672 C-77.96600341796875,16.34600067138672 -8.109000205993652,32.435001373291016 70.19000244140625,-23.469999313354492 C70.19000244140625,-23.469999313354492 60.685001373291016,-32.435001373291016 60.685001373291016,-32.435001373291016 C60.685001373291016,-32.435001373291016 -77.96600341796875,16.34600067138672 -77.96600341796875,16.34600067138672z"/><path stroke-linecap="round" stroke-linejoin="round" fill-opacity="0" stroke="rgb(25,25,25)" stroke-opacity="1" stroke-width="1.5" d=" M-77.96600341796875,16.34600067138672 C-77.96600341796875,16.34600067138672 -8.109000205993652,32.435001373291016 70.19000244140625,-23.469999313354492 C70.19000244140625,-23.469999313354492 60.685001373291016,-32.435001373291016 60.685001373291016,-32.435001373291016 C60.685001373291016,-32.435001373291016 -77.96600341796875,16.34600067138672 -77.96600341796875,16.34600067138672z"/></g><g opacity="1" transform="matrix(1,0,0,1,772.7360229492188,567.1279907226562)"><path fill="rgb(255,204,96)" fill-opacity="1" d=" M-80.81199645996094,-87.08300018310547 C-80.81199645996094,-87.08300018310547 -30.910999298095703,-95.11699676513672 -30.910999298095703,-95.11699676513672 C-30.910999298095703,-95.11699676513672 69.42400360107422,-3.937999963760376 82.1240005493164,30.77400016784668 C-11.005999565124512,95.11799621582031 -86.02100372314453,73.41200256347656 -86.02100372314453,73.41200256347656 C-86.02100372314453,73.41200256347656 -80.81199645996094,-87.08300018310547 -80.81199645996094,-87.08300018310547z"/><path stroke-linecap="round" stroke-linejoin="round" fill-opacity="0" stroke="rgb(25,25,25)" stroke-opacity="1" stroke-width="1.5" d=" M-80.81199645996094,-87.08300018310547 C-80.81199645996094,-87.08300018310547 -30.910999298095703,-95.11699676513672 -30.910999298095703,-95.11699676513672 C-30.910999298095703,-95.11699676513672 69.42400360107422,-3.937999963760376 82.1240005493164,30.77400016784668 C-11.005999565124512,95.11799621582031 -86.02100372314453,73.41200256347656 -86.02100372314453,73.41200256347656 C-86.02100372314453,73.41200256347656 -80.81199645996094,-87.08300018310547 -80.81199645996094,-87.08300018310547z"/></g></g><g transform="matrix(0.9758971333503723,0.21823108196258545,-0.21823108196258545,0.9758971333503723,-63.75494384765625,-373.9316101074219)" opacity="1" style="display: block;"><g opacity="1" transform="matrix(1,0,0,1,661.5449829101562,483.4169921875)"><path fill="rgb(255,255,255)" fill-opacity="1" d=" M-16.650999069213867,-30.76099967956543 C-16.650999069213867,-30.76099967956543 -29.06800079345703,30.76099967956543 -3.6700000762939453,25.117000579833984 C21.729999542236328,19.472999572753906 29.06800079345703,2.5399999618530273 29.06800079345703,2.5399999618530273 C29.06800079345703,2.5399999618530273 -16.650999069213867,-30.76099967956543 -16.650999069213867,-30.76099967956543z"/><path stroke-linecap="round" stroke-linejoin="round" fill-opacity="0" stroke="rgb(25,25,25)" stroke-opacity="1" stroke-width="1.5" d=" M-16.650999069213867,-30.76099967956543 C-16.650999069213867,-30.76099967956543 -29.06800079345703,30.76099967956543 -3.6700000762939453,25.117000579833984 C21.729999542236328,19.472999572753906 29.06800079345703,2.5399999618530273 29.06800079345703,2.5399999618530273 C29.06800079345703,2.5399999618530273 -16.650999069213867,-30.76099967956543 -16.650999069213867,-30.76099967956543z"/></g><g opacity="1" transform="matrix(1,0,0,1,708.0999755859375,487.27398681640625)"><path fill="rgb(64,55,37)" fill-opacity="1" d=" M-67.91000366210938,-36.124000549316406 C-67.91000366210938,-36.124000549316406 -47.590999603271484,-67.35399627685547 -20.121999740600586,-59.452999114990234 C7.3470001220703125,-51.54999923706055 53.21900177001953,-1.7799999713897705 67.91100311279297,-8.604000091552734 C49.867000579833984,43.64799880981445 19.93600082397461,67.35399627685547 -21.729000091552734,22.952999114990234 C-63.39500045776367,-21.448999404907227 -67.91000366210938,-36.124000549316406 -67.91000366210938,-36.124000549316406z"/><path stroke-linecap="round" stroke-linejoin="round" fill-opacity="0" stroke="rgb(25,25,25)" stroke-opacity="1" stroke-width="1.5" d=" M-67.91000366210938,-36.124000549316406 C-67.91000366210938,-36.124000549316406 -47.590999603271484,-67.35399627685547 -20.121999740600586,-59.452999114990234 C7.3470001220703125,-51.54999923706055 53.21900177001953,-1.7799999713897705 67.91100311279297,-8.604000091552734 C49.867000579833984,43.64799880981445 19.93600082397461,67.35399627685547 -21.729000091552734,22.952999114990234 C-63.39500045776367,-21.448999404907227 -67.91000366210938,-36.124000549316406 -67.91000366210938,-36.124000549316406z"/></g></g></g></g></svg>